<?xml version="1.0" encoding="UTF-8"?>
<!DOCTYPE svg PUBLIC "-//W3C//DTD SVG 1.1//EN" "http://www.w3.org/Graphics/SVG/1.1/DTD/svg11.dtd">
<svg xmlns="http://www.w3.org/2000/svg" version="1.1" width="101px" height="28px" style="shape-rendering:geometricPrecision; text-rendering:geometricPrecision; image-rendering:optimizeQuality; fill-rule:evenodd; clip-rule:evenodd" xmlns:xlink="http://www.w3.org/1999/xlink">
<g><path style="opacity:0.732" fill="#2f302f" d="M 3.5,-0.5 C 4.83333,-0.5 6.16667,-0.5 7.5,-0.5C 8.16667,0.833333 8.83333,0.833333 9.5,-0.5C 11.1667,-0.5 12.8333,-0.5 14.5,-0.5C 14.5,3.5 14.5,7.5 14.5,11.5C 12.8333,11.5 11.1667,11.5 9.5,11.5C 8.83333,4.83333 8.16667,4.83333 7.5,11.5C 6.16667,11.5 4.83333,11.5 3.5,11.5C 3.5,7.5 3.5,3.5 3.5,-0.5 Z"/></g>
<g><path style="opacity:0.551" fill="#2f302f" d="M 18.5,-0.5 C 20.1667,-0.5 21.8333,-0.5 23.5,-0.5C 23.5,3.5 23.5,7.5 23.5,11.5C 21.8333,11.5 20.1667,11.5 18.5,11.5C 18.7622,7.32042 18.7622,3.32042 18.5,-0.5 Z"/></g>
<g><path style="opacity:0.732" fill="#2f302f" d="M 41.5,-0.5 C 43.8333,-0.5 46.1667,-0.5 48.5,-0.5C 52.1684,1.3919 53.3351,4.3919 52,8.5C 49.0164,11.1001 45.5164,12.1001 41.5,11.5C 41.5,7.5 41.5,3.5 41.5,-0.5 Z"/></g>
<g><path style="opacity:0.678" fill="#2f302f" d="M 56.5,-0.5 C 59.8333,-0.5 63.1667,-0.5 66.5,-0.5C 66.2034,2.5589 64.8701,5.0589 62.5,7C 63.7932,7.49001 65.1266,7.65668 66.5,7.5C 66.5,8.83333 66.5,10.1667 66.5,11.5C 63.1667,11.5 59.8333,11.5 56.5,11.5C 56.3501,8.54134 57.3501,6.04134 59.5,4C 58.552,3.51722 57.552,3.35055 56.5,3.5C 56.5,2.16667 56.5,0.833333 56.5,-0.5 Z"/></g>
<g><path style="opacity:0.696" fill="#2f302f" d="M 72.5,-0.5 C 74.8333,-0.5 77.1667,-0.5 79.5,-0.5C 81.2514,2.92882 81.7514,6.59549 81,10.5C 72.9991,13.4818 69.3324,10.8151 70,2.5C 71.045,1.62656 71.8783,0.626561 72.5,-0.5 Z"/></g>
<g><path style="opacity:0.708" fill="#2f302f" d="M 85.5,-0.5 C 87.1667,-0.5 88.8333,-0.5 90.5,-0.5C 91.5477,1.93268 92.2144,1.93268 92.5,-0.5C 94.1667,-0.5 95.8333,-0.5 97.5,-0.5C 97.5,3.5 97.5,7.5 97.5,11.5C 95.8333,11.5 94.1667,11.5 92.5,11.5C 91.839,5.30828 90.839,5.14161 89.5,11C 88.2068,11.49 86.8734,11.6567 85.5,11.5C 85.5,7.5 85.5,3.5 85.5,-0.5 Z"/></g>
<g><path style="opacity:0.688" fill="#2f302f" d="M 28.5,1.5 C 35.6608,0.996814 38.6608,4.33015 37.5,11.5C 34.2234,11.7839 31.0567,11.4505 28,10.5C 27.9565,7.52479 28.1231,4.52479 28.5,1.5 Z"/></g>
<g><path style="opacity:0.412" fill="#2f302f" d="M 18.5,12.5 C 19.236,15.6954 19.9027,19.0287 20.5,22.5C 19.3112,23.4287 17.9778,23.762 16.5,23.5C 16.0357,19.4975 16.7024,15.8309 18.5,12.5 Z"/></g>
<g><path style="opacity:0.481" fill="#2f302f" d="M 7.5,13.5 C 8.83333,13.5 10.1667,13.5 11.5,13.5C 11.4609,15.3588 12.2942,16.6921 14,17.5C 15.161,22.1599 13.3277,24.1599 8.5,23.5C 8.65757,20.0977 8.32423,16.7644 7.5,13.5 Z"/></g>
<g><path style="opacity:0.399" fill="#2f302f" d="M 62.5,14.5 C 64.5901,14.4501 65.9234,15.4501 66.5,17.5C 65.7517,19.4159 65.7517,21.4159 66.5,23.5C 65.1667,23.5 63.8333,23.5 62.5,23.5C 61.4589,20.4578 61.4589,17.4578 62.5,14.5 Z"/></g>
<g><path style="opacity:0.498" fill="#2f302f" d="M 23.5,16.5 C 28.2548,16.1563 29.5881,18.1563 27.5,22.5C 21.724,23.6262 20.3907,21.6262 23.5,16.5 Z"/></g>
<g><path style="opacity:0.552" fill="#2f302f" d="M 31.5,16.5 C 36.4058,15.9541 37.4058,17.4541 34.5,21C 37.5951,25.4422 36.2617,27.2755 30.5,26.5C 30.2529,23.0613 30.5863,19.728 31.5,16.5 Z"/></g>
<g><path style="opacity:0.464" fill="#2f302f" d="M 39.5,16.5 C 40.8333,16.5 42.1667,16.5 43.5,16.5C 43.6621,18.5273 43.4955,20.5273 43,22.5C 41.6439,23.3802 40.1439,23.7135 38.5,23.5C 38.298,21.0504 38.6314,18.717 39.5,16.5 Z"/></g>
<g><path style="opacity:0.496" fill="#2f302f" d="M 45.5,16.5 C 51.613,15.1009 53.4463,17.1009 51,22.5C 48.8913,23.0353 48.3913,24.0353 49.5,25.5C 48.3112,26.4287 46.9778,26.762 45.5,26.5C 45.5,23.1667 45.5,19.8333 45.5,16.5 Z"/></g>
<g><path style="opacity:0.491" fill="#2f302f" d="M 55.5,16.5 C 59.8413,16.5186 61.1747,18.5186 59.5,22.5C 53.7015,23.5764 52.3681,21.5764 55.5,16.5 Z"/></g>
<g><path style="opacity:0.497" fill="#2f302f" d="M 74.5,16.5 C 75.8333,16.5 77.1667,16.5 78.5,16.5C 78.719,17.675 78.3857,18.675 77.5,19.5C 75.0843,18.6809 74.9176,19.3476 77,21.5C 77.3333,21.1667 77.6667,20.8333 78,20.5C 78.4828,21.448 78.6495,22.448 78.5,23.5C 73.5904,23.4236 72.2571,21.0902 74.5,16.5 Z"/></g>
<g><path style="opacity:0.507" fill="#2f302f" d="M 81.5,16.5 C 86.3276,16.3852 87.6609,18.5519 85.5,23C 80.5705,23.427 79.2372,21.2604 81.5,16.5 Z"/></g>
<g><path style="opacity:0.585" fill="#2f302f" d="M 88.5,16.5 C 91.5,16.5 94.5,16.5 97.5,16.5C 97.5,18.8333 97.5,21.1667 97.5,23.5C 94.4281,23.8174 91.4281,23.4841 88.5,22.5C 89.6225,20.5184 89.6225,18.5184 88.5,16.5 Z"/></g>
<g><path style="opacity:0.3" fill="#2f302f" d="M 3.5,20.5 C 7.30997,21.7542 7.30997,22.7542 3.5,23.5C 3.5,22.5 3.5,21.5 3.5,20.5 Z"/></g>
<g><path style="opacity:0.303" fill="#2f302f" d="M 68.5,20.5 C 72.31,21.7542 72.31,22.7542 68.5,23.5C 68.5,22.5 68.5,21.5 68.5,20.5 Z"/></g>
</svg>
